<svg xmlns="http://www.w3.org/2000/svg" xmlns:xlink="http://www.w3.org/1999/xlink" width="1920" zoomAndPan="magnify" viewBox="0 0 1440 809.999993" height="1080" preserveAspectRatio="xMidYMid meet" version="1.0"><defs><filter x="0%" y="0%" width="100%" height="100%" id="33be349f91"><feColorMatrix values="0 0 0 0 1 0 0 0 0 1 0 0 0 0 1 0 0 0 1 0" color-interpolation-filters="sRGB"/></filter><mask id="9012baff65"><g filter="url(#33be349f91)"><rect x="-144" width="1728" fill="#000000" y="-80.999999" height="971.999992" fill-opacity="0.8"/></g></mask><clipPath id="2af2eeea47"><path d="M 0 30 L 146 30 L 146 172 L 0 172 Z M 0 30 " clip-rule="nonzero"/></clipPath><clipPath id="b3d06daa54"><path d="M -78.476562 60.183594 L 115.953125 0.710938 L 175.425781 195.140625 L -19.003906 254.613281 Z M -78.476562 60.183594 " clip-rule="nonzero"/></clipPath><clipPath id="778e1fb1e5"><path d="M 18.738281 30.449219 L 69.945312 87.265625 L 145.6875 97.925781 L 88.871094 149.132812 L 78.210938 224.878906 L 27.003906 168.058594 L -48.742188 157.398438 L 8.078125 106.191406 Z M 18.738281 30.449219 " clip-rule="nonzero"/></clipPath><clipPath id="492c7f223a"><path d="M 0 0.398438 L 145.921875 0.398438 L 145.921875 142 L 0 142 Z M 0 0.398438 " clip-rule="nonzero"/></clipPath><clipPath id="eb3185565b"><path d="M -78.476562 30.183594 L 115.953125 -29.289062 L 175.425781 165.140625 L -19.003906 224.613281 Z M -78.476562 30.183594 " clip-rule="nonzero"/></clipPath><clipPath id="93fd7ed4ba"><path d="M 18.738281 0.449219 L 69.945312 57.265625 L 145.6875 67.925781 L 88.871094 119.132812 L 78.210938 194.878906 L 27.003906 138.058594 L -48.742188 127.398438 L 8.078125 76.191406 Z M 18.738281 0.449219 " clip-rule="nonzero"/></clipPath><clipPath id="38ec7b5d2e"><rect x="0" width="146" y="0" height="142"/></clipPath><clipPath id="45ba2fe817"><rect x="0" width="176" y="0" height="172"/></clipPath></defs><g mask="url(#9012baff65)"><g transform="matrix(1, 0, 0, 1, 0, 638)"><g clip-path="url(#45ba2fe817)"><g clip-path="url(#2af2eeea47)"><g clip-path="url(#b3d06daa54)"><g clip-path="url(#778e1fb1e5)"><g transform="matrix(1, 0, 0, 1, 0, 30)"><g clip-path="url(#38ec7b5d2e)"><g clip-path="url(#492c7f223a)"><g clip-path="url(#eb3185565b)"><g clip-path="url(#93fd7ed4ba)"><path fill="#4264d1" d="M -78.476562 30.183594 L 115.953125 -29.289062 L 175.425781 165.140625 L -19.003906 224.613281 Z M -78.476562 30.183594 " fill-opacity="1" fill-rule="nonzero"/></g></g></g></g></g></g></g></g></g></g></g></svg>