<svg xmlns="http://www.w3.org/2000/svg" xmlns:xlink="http://www.w3.org/1999/xlink" width="1920" zoomAndPan="magnify" viewBox="0 0 1440 809.999993" height="1080" preserveAspectRatio="xMidYMid meet" version="1.0"><defs><filter x="0%" y="0%" width="100%" height="100%" id="3caba428df"><feColorMatrix values="0 0 0 0 1 0 0 0 0 1 0 0 0 0 1 0 0 0 1 0" color-interpolation-filters="sRGB"/></filter><mask id="87d69acf91"><g filter="url(#3caba428df)"><rect x="-144" width="1728" fill="#000000" y="-80.999999" height="971.999992" fill-opacity="0.5"/></g></mask><clipPath id="3795ce9b8e"><path d="M 0.519531 0.558594 L 103 0.558594 L 103 105.921875 L 0.519531 105.921875 Z M 0.519531 0.558594 " clip-rule="nonzero"/></clipPath><clipPath id="d560464fbf"><path d="M 0.519531 69 L 37 69 L 37 105.921875 L 0.519531 105.921875 Z M 0.519531 69 " clip-rule="nonzero"/></clipPath><clipPath id="7f6f9aa581"><rect x="0" width="103" y="0" height="106"/></clipPath><clipPath id="4cfdd708c6"><path d="M 0 582 L 171 582 L 171 810 L 0 810 Z M 0 582 " clip-rule="nonzero"/></clipPath><clipPath id="11ff54f91b"><path d="M -4.960938 582.507812 L 197.898438 606.066406 L 170.109375 845.375 L -32.75 821.816406 Z M -4.960938 582.507812 " clip-rule="nonzero"/></clipPath><clipPath id="5f0d40edcd"><path d="M 170.191406 844.644531 L -32.664062 821.089844 L -4.960938 582.507812 Z M 170.191406 844.644531 " clip-rule="nonzero"/></clipPath><clipPath id="d18693c762"><path d="M 0 0.480469 L 170.398438 0.480469 L 170.398438 228 L 0 228 Z M 0 0.480469 " clip-rule="nonzero"/></clipPath><clipPath id="fe4cca0145"><path d="M -4.960938 0.507812 L 197.898438 24.066406 L 170.109375 263.375 L -32.75 239.816406 Z M -4.960938 0.507812 " clip-rule="nonzero"/></clipPath><clipPath id="ab85617367"><path d="M 170.191406 262.644531 L -32.664062 239.089844 L -4.960938 0.507812 Z M 170.191406 262.644531 " clip-rule="nonzero"/></clipPath><clipPath id="082efa9f20"><rect x="0" width="171" y="0" height="228"/></clipPath></defs><path stroke-linecap="butt" transform="matrix(0.75, 0, 0, 0.75, 1170.129451, 687.136617)" fill="none" stroke-linejoin="miter" d="M 59.999276 99.239723 L 114.369071 99.239723 C 127.619071 99.239723 138.369072 88.494931 138.369072 75.239722 L 138.369072 32.000137 C 138.369072 18.744928 149.113864 8.000135 162.369073 8.000135 L 359.290958 8.000135 " stroke="#8199e9" stroke-width="16" stroke-opacity="1" stroke-miterlimit="4"/><path stroke-linecap="round" transform="matrix(0.75, 0, 0, 0.75, 1170.129451, 687.136617)" fill="none" stroke-linejoin="round" d="M 7.999274 99.239723 C 7.999274 85.984514 18.744066 75.239722 31.999275 75.239722 C 45.254484 75.239722 55.999276 85.984514 55.999276 99.239723 C 55.999276 112.494932 45.254484 123.239725 31.999275 123.239725 C 18.744066 123.239725 7.999274 112.494932 7.999274 99.239723 " stroke="#8199e9" stroke-width="16" stroke-opacity="1" stroke-miterlimit="4"/><path stroke-linecap="round" transform="matrix(0.75, 0, 0, 0.75, 1170.129451, 687.136617)" fill="none" stroke-linejoin="round" d="M 411.290961 8.000135 C 411.290961 21.255344 400.546168 32.000137 387.290959 32.000137 C 374.03575 32.000137 363.290958 21.255344 363.290958 8.000135 C 363.290958 -5.255074 374.03575 -15.999866 387.290959 -15.999866 C 400.546168 -15.999866 411.290961 -5.255074 411.290961 8.000135 " stroke="#8199e9" stroke-width="16" stroke-opacity="1" stroke-miterlimit="4"/><g mask="url(#87d69acf91)"><g transform="matrix(1, 0, 0, 1, 1337, 556)"><g clip-path="url(#7f6f9aa581)"><g clip-path="url(#3795ce9b8e)"><path stroke-linecap="butt" transform="matrix(0.75, 0, 0, 0.75, 0.61615, 14.195226)" fill="none" stroke-linejoin="miter" d="M 45.001386 97.239704 L 142.876391 97.239704 C 156.1316 97.239704 166.876392 86.494912 166.876392 73.239703 L 166.876392 30.000117 C 166.876392 16.744908 177.621184 6.000116 190.876393 6.000116 L 402.803487 6.000116 " stroke="#000000" stroke-width="12" stroke-opacity="1" stroke-miterlimit="4"/></g><g clip-path="url(#d560464fbf)"><path stroke-linecap="round" transform="matrix(0.75, 0, 0, 0.75, 0.61615, 14.195226)" fill="none" stroke-linejoin="round" d="M 6.001384 97.239704 C 6.001384 87.296995 14.058676 79.239703 24.001385 79.239703 C 33.938885 79.239703 42.001386 87.296995 42.001386 97.239704 C 42.001386 107.177204 33.938885 115.239705 24.001385 115.239705 C 14.058676 115.239705 6.001384 107.177204 6.001384 97.239704 " stroke="#000000" stroke-width="12" stroke-opacity="1" stroke-miterlimit="4"/></g></g></g></g><g clip-path="url(#4cfdd708c6)"><g clip-path="url(#11ff54f91b)"><g clip-path="url(#5f0d40edcd)"><g transform="matrix(1, 0, 0, 1, 0, 582)"><g clip-path="url(#082efa9f20)"><g clip-path="url(#d18693c762)"><g clip-path="url(#fe4cca0145)"><g clip-path="url(#ab85617367)"><path fill="#486eea" d="M -4.960938 0.507812 L 197.898438 24.066406 L 170.199219 262.582031 L -32.660156 239.023438 Z M -4.960938 0.507812 " fill-opacity="1" fill-rule="nonzero"/></g></g></g></g></g></g></g></g></svg>