<svg xmlns="http://www.w3.org/2000/svg" xmlns:xlink="http://www.w3.org/1999/xlink" width="1920" zoomAndPan="magnify" viewBox="0 0 1440 809.999993" height="1080" preserveAspectRatio="xMidYMid meet" version="1.0"><defs><filter x="0%" y="0%" width="100%" height="100%" id="f8af11e0d1"><feColorMatrix values="0 0 0 0 1 0 0 0 0 1 0 0 0 0 1 0 0 0 1 0" color-interpolation-filters="sRGB"/></filter><mask id="950f4350d9"><g filter="url(#f8af11e0d1)"><rect x="-144" width="1728" fill="#000000" y="-80.999999" height="971.999992" fill-opacity="0.5"/></g></mask><clipPath id="66273fd70a"><path d="M 0.441406 0.480469 L 65 0.480469 L 65 80.878906 L 0.441406 80.878906 Z M 0.441406 0.480469 " clip-rule="nonzero"/></clipPath><clipPath id="2de0bd1b9b"><path d="M 0.441406 53 L 28 53 L 28 80.878906 L 0.441406 80.878906 Z M 0.441406 53 " clip-rule="nonzero"/></clipPath><clipPath id="f736d40632"><rect x="0" width="65" y="0" height="81"/></clipPath><clipPath id="b8e83c06f0"><path d="M 0 606 L 149 606 L 149 810 L 0 810 Z M 0 606 " clip-rule="nonzero"/></clipPath><clipPath id="f9501ab1c5"><path d="M -36.785156 606.5 L 177.503906 631.382812 L 148.636719 879.992188 L -65.652344 855.109375 Z M -36.785156 606.5 " clip-rule="nonzero"/></clipPath><clipPath id="dbfa132e43"><path d="M 148.691406 879.53125 L -65.601562 854.644531 L -36.785156 606.5 Z M 148.691406 879.53125 " clip-rule="nonzero"/></clipPath><clipPath id="624e7bfdeb"><path d="M 0 0.480469 L 148.800781 0.480469 L 148.800781 204 L 0 204 Z M 0 0.480469 " clip-rule="nonzero"/></clipPath><clipPath id="ee785b03c6"><path d="M -36.785156 0.5 L 177.503906 25.382812 L 148.636719 273.992188 L -65.652344 249.109375 Z M -36.785156 0.5 " clip-rule="nonzero"/></clipPath><clipPath id="27625f3625"><path d="M 148.691406 273.53125 L -65.601562 248.644531 L -36.785156 0.5 Z M 148.691406 273.53125 " clip-rule="nonzero"/></clipPath><clipPath id="bc721822cb"><rect x="0" width="149" y="0" height="204"/></clipPath></defs><path stroke-linecap="butt" transform="matrix(0.75, 0, 0, 0.75, 1247.428767, 724.256)" fill="none" stroke-linejoin="miter" d="M 48.751229 76.314921 L 86.876231 76.314921 C 97.365815 76.314921 105.876232 67.804504 105.876232 57.31492 L 105.876232 25.502419 C 105.876232 15.007626 114.381441 6.502418 124.876233 6.502418 L 272.079365 6.502418 " stroke="#8199e9" stroke-width="13" stroke-opacity="1" stroke-miterlimit="4"/><path stroke-linecap="round" transform="matrix(0.75, 0, 0, 0.75, 1247.428767, 724.256)" fill="none" stroke-linejoin="round" d="M 6.501227 76.314921 C 6.501227 65.544087 15.230394 56.81492 26.001228 56.81492 C 36.772062 56.81492 45.501229 65.544087 45.501229 76.314921 C 45.501229 87.080547 36.772062 95.814922 26.001228 95.814922 C 15.230394 95.814922 6.501227 87.080547 6.501227 76.314921 " stroke="#8199e9" stroke-width="13" stroke-opacity="1" stroke-miterlimit="4"/><g mask="url(#950f4350d9)"><g transform="matrix(1, 0, 0, 1, 1375, 624)"><g clip-path="url(#f736d40632)"><g clip-path="url(#66273fd70a)"><path stroke-linecap="butt" transform="matrix(0.75, 0, 0, 0.75, 0.58525, 11.127644)" fill="none" stroke-linejoin="miter" d="M 33.750919 74.314186 L 108.688423 74.314186 C 119.183215 74.314186 127.688424 65.803769 127.688424 55.314186 L 127.688424 23.501684 C 127.688424 13.006892 136.198841 4.501683 146.688425 4.501683 L 308.896766 4.501683 " stroke="#000000" stroke-width="9" stroke-opacity="1" stroke-miterlimit="4"/></g><g clip-path="url(#2de0bd1b9b)"><path stroke-linecap="round" transform="matrix(0.75, 0, 0, 0.75, 0.58525, 11.127644)" fill="none" stroke-linejoin="round" d="M 4.500918 74.314186 C 4.500918 66.855853 10.542585 60.814186 18.000918 60.814186 C 25.454044 60.814186 31.500919 66.855853 31.500919 74.314186 C 31.500919 81.767312 25.454044 87.814187 18.000918 87.814187 C 10.542585 87.814187 4.500918 81.767312 4.500918 74.314186 " stroke="#000000" stroke-width="9" stroke-opacity="1" stroke-miterlimit="4"/></g></g></g></g><g clip-path="url(#b8e83c06f0)"><g clip-path="url(#f9501ab1c5)"><g clip-path="url(#dbfa132e43)"><g transform="matrix(1, 0, 0, 1, 0, 606)"><g clip-path="url(#bc721822cb)"><g clip-path="url(#624e7bfdeb)"><g clip-path="url(#ee785b03c6)"><g clip-path="url(#27625f3625)"><path fill="#486eea" d="M -36.785156 0.5 L 177.503906 25.382812 L 148.734375 273.15625 L -65.554688 248.273438 Z M -36.785156 0.5 " fill-opacity="1" fill-rule="nonzero"/></g></g></g></g></g></g></g></g></svg>