<svg xmlns="http://www.w3.org/2000/svg" xmlns:xlink="http://www.w3.org/1999/xlink" width="1920" zoomAndPan="magnify" viewBox="0 0 1440 809.999993" height="1080" preserveAspectRatio="xMidYMid meet" version="1.0"><defs><filter x="0%" y="0%" width="100%" height="100%" id="0fd652941c"><feColorMatrix values="0 0 0 0 1 0 0 0 0 1 0 0 0 0 1 0 0 0 1 0" color-interpolation-filters="sRGB"/></filter><mask id="9b07762137"><g filter="url(#0fd652941c)"><rect x="-144" width="1728" fill="#000000" y="-80.999999" height="971.999992" fill-opacity="0.8"/></g></mask><clipPath id="cd541e19e1"><path d="M 0 28 L 134 28 L 134 175 L 0 175 Z M 0 28 " clip-rule="nonzero"/></clipPath><clipPath id="b851d4b3cd"><path d="M -81.304688 57.394531 L 104.707031 0.496094 L 161.601562 186.507812 L -24.40625 243.402344 Z M -81.304688 57.394531 " clip-rule="nonzero"/></clipPath><clipPath id="928c63f9e9"><path d="M 11.699219 28.945312 L 60.691406 83.304688 L 133.152344 93.5 L 78.792969 142.492188 L 68.597656 214.953125 L 19.605469 160.59375 L -52.855469 150.398438 L 1.503906 101.40625 Z M 11.699219 28.945312 " clip-rule="nonzero"/></clipPath><clipPath id="28e8782c56"><path d="M 0 0.839844 L 133.199219 0.839844 L 133.199219 147 L 0 147 Z M 0 0.839844 " clip-rule="nonzero"/></clipPath><clipPath id="daa2b8e7ec"><path d="M -81.304688 29.394531 L 104.707031 -27.503906 L 161.601562 158.507812 L -24.40625 215.402344 Z M -81.304688 29.394531 " clip-rule="nonzero"/></clipPath><clipPath id="2ac3248d2f"><path d="M 11.699219 0.945312 L 60.691406 55.304688 L 133.152344 65.5 L 78.792969 114.492188 L 68.597656 186.953125 L 19.605469 132.59375 L -52.855469 122.398438 L 1.503906 73.40625 Z M 11.699219 0.945312 " clip-rule="nonzero"/></clipPath><clipPath id="b5eef39069"><rect x="0" width="134" y="0" height="147"/></clipPath><clipPath id="2250cd9fd3"><rect x="0" width="162" y="0" height="175"/></clipPath></defs><g mask="url(#9b07762137)"><g transform="matrix(1, 0, 0, 1, 0, 635)"><g clip-path="url(#2250cd9fd3)"><g clip-path="url(#cd541e19e1)"><g clip-path="url(#b851d4b3cd)"><g clip-path="url(#928c63f9e9)"><g transform="matrix(1, 0, 0, 1, 0, 28)"><g clip-path="url(#b5eef39069)"><g clip-path="url(#28e8782c56)"><g clip-path="url(#daa2b8e7ec)"><g clip-path="url(#2ac3248d2f)"><path fill="#4264d1" d="M -81.304688 29.394531 L 104.707031 -27.503906 L 161.601562 158.507812 L -24.40625 215.402344 Z M -81.304688 29.394531 " fill-opacity="1" fill-rule="nonzero"/></g></g></g></g></g></g></g></g></g></g></g></svg>