<svg xmlns="http://www.w3.org/2000/svg" xmlns:xlink="http://www.w3.org/1999/xlink" width="1920" zoomAndPan="magnify" viewBox="0 0 1440 809.999993" height="1080" preserveAspectRatio="xMidYMid meet" version="1.0"><defs><filter x="0%" y="0%" width="100%" height="100%" id="c90b754b2c"><feColorMatrix values="0 0 0 0 1 0 0 0 0 1 0 0 0 0 1 0 0 0 1 0" color-interpolation-filters="sRGB"/></filter><mask id="0a1a6df4c8"><g filter="url(#c90b754b2c)"><rect x="-144" width="1728" fill="#000000" y="-80.999999" height="971.999992" fill-opacity="0.7"/></g></mask><clipPath id="a422b46a50"><path d="M 0 0.878906 L 96 0.878906 L 96 244 L 0 244 Z M 0 0.878906 " clip-rule="nonzero"/></clipPath><clipPath id="043440d71c"><rect x="0" width="96" y="0" height="244"/></clipPath></defs><g mask="url(#0a1a6df4c8)"><g transform="matrix(1, 0, 0, 1, 0, 566)"><g clip-path="url(#043440d71c)"><g clip-path="url(#a422b46a50)"><path stroke-linecap="butt" transform="matrix(0.369791, 0.652499, -0.652499, 0.369791, -79.432571, 3.714757)" fill="none" stroke-linejoin="miter" d="M 0.00135023 4.001382 L 469.577875 4.002285 " stroke="#06080e" stroke-width="8" stroke-opacity="1" stroke-miterlimit="4"/></g></g></g></g><path stroke-linecap="butt" transform="matrix(0.373143, 0.650588, -0.650588, 0.373143, -62.151495, 521.127642)" fill="none" stroke-linejoin="miter" d="M 48.749158 6.502302 L 320.025746 6.499829 " stroke="#8199e9" stroke-width="13" stroke-opacity="1" stroke-miterlimit="4"/><path stroke-linecap="round" transform="matrix(0.373143, 0.650588, -0.650588, 0.373143, -62.151495, 521.127642)" fill-opacity="1" fill="#8199e9" fill-rule="nonzero" stroke-linejoin="round" d="M 323.277249 -12.998177 L 349.277306 6.501292 L 323.276384 25.998522 Z M 323.277249 -12.998177 " stroke="#8199e9" stroke-width="13" stroke-opacity="1" stroke-miterlimit="4"/></svg>