<svg xmlns="http://www.w3.org/2000/svg" xmlns:xlink="http://www.w3.org/1999/xlink" width="1920" zoomAndPan="magnify" viewBox="0 0 1440 809.999993" height="1080" preserveAspectRatio="xMidYMid meet" version="1.0"><defs><filter x="0%" y="0%" width="100%" height="100%" id="303801247f"><feColorMatrix values="0 0 0 0 1 0 0 0 0 1 0 0 0 0 1 0 0 0 1 0" color-interpolation-filters="sRGB"/></filter><mask id="0c92dc320e"><g filter="url(#303801247f)"><rect x="-144" width="1728" fill="#000000" y="-80.999999" height="971.999992" fill-opacity="0.7"/></g></mask><clipPath id="2a6dc42a40"><path d="M 0 0.519531 L 249.121094 0.519531 L 249.121094 223 L 0 223 Z M 0 0.519531 " clip-rule="nonzero"/></clipPath><clipPath id="b8a5befae2"><rect x="0" width="250" y="0" height="223"/></clipPath><mask id="9d9a5b6c0f"><g filter="url(#303801247f)"><rect x="-144" width="1728" fill="#000000" y="-80.999999" height="971.999992" fill-opacity="0.7"/></g></mask><clipPath id="2e50015c2c"><path d="M 0 0.519531 L 293.761719 0.519531 L 293.761719 229 L 0 229 Z M 0 0.519531 " clip-rule="nonzero"/></clipPath><clipPath id="116da547e2"><rect x="0" width="294" y="0" height="229"/></clipPath></defs><g mask="url(#0c92dc320e)"><g transform="matrix(1, 0, 0, 1, 0, 587)"><g clip-path="url(#b8a5befae2)"><g clip-path="url(#2a6dc42a40)"><path stroke-linecap="butt" transform="matrix(0.572489, 0.484517, -0.484517, 0.572489, -112.9182, 3.468193)" fill="none" stroke-linejoin="miter" d="M 0.000429704 5.998272 L 625.976304 5.999866 " stroke="#06080e" stroke-width="12" stroke-opacity="1" stroke-miterlimit="4"/></g></g></g></g><g mask="url(#9d9a5b6c0f)"><g transform="matrix(1, 0, 0, 1, 0, 581)"><g clip-path="url(#116da547e2)"><g clip-path="url(#2e50015c2c)"><path stroke-linecap="butt" transform="matrix(0.572489, 0.484517, -0.484517, 0.572489, -69.409063, 4.446944)" fill="none" stroke-linejoin="miter" d="M 0.000466868 8.000463 L 625.980316 7.998693 " stroke="#4264d1" stroke-width="16" stroke-opacity="1" stroke-miterlimit="4"/></g></g></g></g></svg>